<?xml version="1.0" standalone="no"?>
<!DOCTYPE svg PUBLIC "-//W3C//DTD SVG 20010904//EN"
 "http://www.w3.org/TR/2001/REC-SVG-20010904/DTD/svg10.dtd">
<svg version="1.0" xmlns="http://www.w3.org/2000/svg"
 width="512.000000pt" height="512.000000pt" viewBox="0 0 512.000000 512.000000"
 preserveAspectRatio="xMidYMid meet">
<metadata>
Created by potrace 1.14, written by Peter Selinger 2001-2017
</metadata>
<g transform="translate(0.000000,512.000000) scale(0.100000,-0.100000)"
fill="#000000" stroke="none">
<path d="M1099 5116 c-2 -2 -24 -6 -49 -9 -69 -8 -204 -61 -284 -111 -190
-120 -316 -307 -365 -541 -12 -59 -10 -3762 2 -3810 19 -75 52 -165 80 -215
123 -227 335 -380 582 -419 72 -12 2173 -9 2225 3 305 69 532 289 617 597 15
54 18 108 18 349 l0 285 -29 42 c-38 57 -118 97 -178 90 -82 -10 -131 -44
-168 -117 -18 -36 -20 -59 -20 -273 0 -299 -15 -359 -118 -465 -54 -55 -111
-88 -187 -108 -73 -20 -2057 -20 -2130 0 -140 37 -239 132 -289 278 -14 38
-15 272 -16 1858 0 1972 -3 1855 52 1964 45 88 157 170 268 195 62 14 2038 14
2100 0 146 -33 253 -130 303 -277 9 -27 14 -102 16 -243 1 -112 7 -221 12
-242 12 -45 64 -102 113 -122 96 -40 212 5 257 100 17 36 18 61 15 280 -4 262
-5 271 -46 386 -88 247 -291 431 -560 507 -48 14 -193 16 -1136 19 -594 2
-1082 2 -1085 -1z"/>
<path d="M1885 4391 c-56 -26 -82 -51 -106 -105 -41 -94 -2 -204 90 -253 43
-22 52 -23 288 -23 270 0 295 4 346 63 35 38 52 80 55 128 5 75 -47 157 -117
188 -44 18 -68 20 -282 20 -205 0 -239 -2 -274 -18z"/>
<path d="M3246 3553 c-33 -8 -93 -50 -114 -80 -16 -22 -107 -310 -127 -403 -6
-27 -226 -796 -260 -910 -7 -25 -34 -121 -60 -213 -58 -206 -57 -249 4 -319
46 -51 82 -67 153 -64 64 1 122 29 159 77 29 36 38 66 268 879 61 217 118 415
125 440 120 388 126 463 43 541 -47 44 -130 67 -191 52z"/>
<path d="M2084 3352 c-43 -21 -523 -416 -587 -486 -88 -93 -122 -183 -121
-321 1 -115 20 -177 82 -266 43 -61 549 -495 618 -529 75 -37 162 -21 224 41
56 56 73 128 48 200 -17 52 -42 79 -163 178 -11 9 -50 41 -85 71 -36 30 -69
59 -75 63 -5 4 -28 23 -50 42 -22 20 -72 61 -112 93 -74 59 -99 96 -89 130 4
11 48 55 99 98 51 43 94 81 97 84 5 4 87 72 134 110 10 8 26 22 35 31 9 8 51
44 94 78 42 35 86 78 97 96 41 66 35 161 -12 226 -49 66 -161 95 -234 61z"/>
<path d="M3881 3358 c-135 -38 -185 -221 -88 -320 35 -36 85 -80 307 -269 265
-225 262 -218 135 -324 -26 -22 -53 -44 -59 -50 -16 -15 -147 -126 -176 -151
-124 -105 -189 -163 -211 -188 -28 -31 -49 -86 -49 -127 0 -146 162 -245 288
-176 31 16 310 247 426 352 6 6 42 37 80 70 120 103 178 216 182 356 3 92 -8
145 -47 225 -39 81 -84 127 -334 339 -115 98 -224 190 -241 205 -66 59 -141
79 -213 58z"/>
<path d="M2109 1101 c-59 -19 -80 -35 -119 -91 -20 -28 -24 -47 -25 -101 0
-60 3 -72 31 -110 88 -122 257 -118 335 7 38 63 33 162 -13 224 -41 56 -146
91 -209 71z"/>
</g>
</svg>
